# xmcd
#
# Track frame offsets: 
#        150
#        3815
#        15525
#        33185
#        53882
#        81317
#        102472
#        121492
#        149202
#        168647
#        201945
#        225370
#        247985
#        267460
#        294707
#        304790
#
# Disc length: 4304 seconds
#
# Revision: 6
# Processed by: cddbd v1.5.2PL0 Copyright (c) Steve Scherf et al.
# Submitted via: ExactAudioCopy v0.99pb5
#
DISCID=e110ce10
DTITLE=Ginuwine - 100% Ginuwine
DYEAR=1999
DGENRE=R&B
TTITLE0=Little Kidz
TTITLE1=Little Man's Bangin' Lude
TTITLE2=What's So Different
TTITLE3=So Anxious
TTITLE4=None of Ur Friend's Business
TTITLE5=Wait a Minute
TTITLE6=I Know
TTITLE7=Do You Remember
TTITLE8=No. 1 Fan
TTITLE9=Final Warning (Ft. Aaliyah)
TTITLE10=I'm Crying Out
TTITLE11=Two Sides to a Story
TTITLE12=Same Ol' G
TTITLE13=All Nite All Day (With Interlude)
TTITLE14=Toe 2 Toe
TTITLE15=She's Out of My Life
EXTD=YEAR: 1999
EXTT0=
EXTT1=
EXTT2=
EXTT3=
EXTT4=
EXTT5=
EXTT6=
EXTT7=
EXTT8=
EXTT9=
EXTT10=
EXTT11=
EXTT12=
EXTT13=
EXTT14=
EXTT15=
PLAYORDER=
